# xmcd
#
# Track frame offsets: 
#        150
#        15807
#        31555
#        45327
#        59027
#        73270
#        84030
#        94667
#        105410
#        120537
#        130532
#        145037
#        156885
#        171957
#        182772
#
# Disc length: 2576 seconds
#
# Revision: 0
# Processed by: cddbd v1.5.2PL0 Copyright (c) Steve Scherf et al.
# Submitted via: ExactAudioCopy v0.95b4
#
DISCID=ae0a0e0f
DTITLE=Garnet Mimms - Cry Baby
DYEAR=1991
DGENRE=R&B
TTITLE0=Cry Baby
TTITLE1=Baby Don't You Weep
TTITLE2=For Your Precious Love
TTITLE3=Anytime You Want Me
TTITLE4=One Girl
TTITLE5=One Woman Man
TTITLE6=That Goes To Show You
TTITLE7=Looking For You
TTITLE8=I'll Take Good Care Of You
TTITLE9=Prove It To Me
TTITLE10=My Baby
TTITLE11=Truth Hurts
TTITLE12=Until You Were Gone
TTITLE13=There Goes My Baby
TTITLE14=A Little Bit Of Soap
EXTD=
EXTT0=
EXTT1=
EXTT2=
EXTT3=
EXTT4=
EXTT5=
EXTT6=
EXTT7=
EXTT8=
EXTT9=
EXTT10=
EXTT11=
EXTT12=
EXTT13=
EXTT14=
PLAYORDER=
